# Mermaid-Diagrams
npm: **[markdown-it-textual-uml](https://www.npmjs.com/package/markdown-it-textual-uml)**

Examples from: **[Mermaid-Live-Editor](https://mermaid-js.github.io/mermaid-live-editor/)**,
apparently not all are working correctly

## Mermaid 1
```mermaid
graph TD
	A[Christmas] -->|Get money| B(Go shopping)
	B --> C{Let me think}
	C -->|One| D[Laptop]
	C -->|Two| E[iPhone]
	C -->|Three| F[fa:fa-car Car]
```

## Mermaid 2
```mermaid
sequenceDiagram
	Alice->>+John: Hello John, how are you?
	Alice->>+John: John, can you hear me?
	John-->>-Alice: Hi Alice, I can hear you!
	John-->>-Alice: I feel great!
```

## Mermaid 3
```mermaid
classDiagram
	Animal <|-- Duck
	Animal <|-- Fish
	Animal <|-- Zebra
	Animal : +int age
	Animal : +String gender
	Animal: +isMammal()
	Animal: +mate()
	class Duck{
		+String beakColor
		+swim()
		+quack()
	}
	class Fish{
		-int sizeInFeet
		-canEat()
	}
	class Zebra{
		+bool is_wild
		+run()
	}
```

## Mermaid 4
```mermaid
stateDiagram
	[*] --> Still
	Still --> [*]

	Still --> Moving
	Moving --> Still
	Moving --> Crash
	Crash --> [*]
```

## Mermaid 5
```mermaid
gantt
	title A Gantt Diagram
	dateFormat  YYYY-MM-DD
	section Section
	A task           :a1, 2014-01-01, 30d
	Another task     :after a1  , 20d
	section Another
	Task in sec      :2014-01-12  , 12d
	another task      : 24d
```

## Mermaid 6
```mermaid
pie title Pets adopted by volunteers
	"Dogs" : 386
	"Cats" : 85
	"Rats" : 15
```

## Mermaid 7
```mermaid
erDiagram
        CUSTOMER }|..|{ DELIVERY-ADDRESS : has
        CUSTOMER ||--o{ ORDER : places
        CUSTOMER ||--o{ INVOICE : "liable for"
        DELIVERY-ADDRESS ||--o{ ORDER : receives
        INVOICE ||--|{ ORDER : covers
        ORDER ||--|{ ORDER-ITEM : includes
        PRODUCT-CATEGORY ||--|{ PRODUCT : contains
        PRODUCT ||--o{ ORDER-ITEM : "ordered in"
```
